<?xml version="1.0" encoding="utf-8"?>
<!-- Generator: Adobe Illustrator 22.0.0, SVG Export Plug-In . SVG Version: 6.00 Build 0)  -->
<svg version="1.1" id="Layer_1" xmlns="http://www.w3.org/2000/svg" xmlns:xlink="http://www.w3.org/1999/xlink" x="0px" y="0px"
	 viewBox="0 0 150 150" style="enable-background:new 0 0 150 150;" xml:space="preserve">
<style type="text/css">
	.st0{fill:#3CB44A;}
	.st1{fill:#0C3A5B;}
	.st2{fill:#88C663;}
	.st3{fill:#ADD376;}
	.st4{fill:#F4B444;}
	.st5{fill:#FFCA5B;}
	.st6{fill:#F5B445;}
	.st7{fill:#FFE17A;}
	.st8{fill:#B0C4D8;}
	.st9{fill:#D4E3EE;}
	.st10{fill:#FFFFFF;}
	.st11{fill:#C7D5E2;}
</style>
<g>
	<g>
		<g>
			<g>
				<g>
					<circle class="st0" cx="75" cy="50.5" r="32.7"/>
					<path class="st1" d="M75,85.9c-19.6,0-35.5-15.9-35.5-35.5S55.4,15,75,15c19.6,0,35.5,15.9,35.5,35.5S94.6,85.9,75,85.9z
						 M75,20.5c-16.5,0-30,13.5-30,30s13.5,30,30,30s30-13.5,30-30S91.5,20.5,75,20.5z"/>
				</g>
			</g>
		</g>
		<g>
			<path class="st2" d="M57.5,74.8l41.8-41.8c-3-4.1-7-7.4-11.6-9.6L47.8,63.1C50,67.8,53.3,71.8,57.5,74.8z"/>
		</g>
		<g>
			<path class="st2" d="M75,80.5c16.6,0,30-13.4,30-30c0-4.1-0.8-8-2.3-11.5L63.5,78.1C67,79.6,70.9,80.5,75,80.5z"/>
		</g>
		<g>
			<g>
				<circle class="st2" cx="75" cy="50.5" r="21.8"/>
			</g>
			<g>
				<g>
					<path class="st1" d="M75,28.6c12,0,21.8,9.8,21.8,21.8S87,72.3,75,72.3s-21.8-9.8-21.8-21.8S63,28.6,75,28.6 M75,25.9
						c-13.5,0-24.5,11-24.5,24.5S61.5,75,75,75s24.5-11,24.5-24.5S88.5,25.9,75,25.9L75,25.9z"/>
				</g>
			</g>
		</g>
		<g>
			<path class="st0" d="M55.9,53.2c0-12,9.8-21.8,21.8-21.8c5.3,0,10.2,1.9,14,5.1c-4-4.8-10-7.8-16.7-7.8c-12,0-21.8,9.8-21.8,21.8
				c0,6.7,3,12.7,7.8,16.7C57.8,63.4,55.9,58.5,55.9,53.2z"/>
		</g>
		<g>
			<path class="st3" d="M81.4,29.6L54.1,56.9c1.5,5,4.9,9.3,9.2,12l30.1-30.1C90.7,34.4,86.4,31.1,81.4,29.6z"/>
		</g>
		<g>
			<g>
				<path class="st2" d="M79.6,31.4c4.6,0.4,8.8,2.2,12.2,5c-2.7-3.2-6.3-5.6-10.3-6.8L79.6,31.4z"/>
			</g>
			<g>
				<path class="st2" d="M61,67.2c-2.8-3.4-4.6-7.6-5-12.2l-1.8,1.8C55.4,60.9,57.8,64.5,61,67.2z"/>
			</g>
		</g>
		<g>
			<path class="st3" d="M75,72.3c12,0,21.8-9.8,21.8-21.8c0-1.7-0.2-3.4-0.6-5.1L69.9,71.7C71.6,72,73.3,72.3,75,72.3z"/>
		</g>
		<path class="st1" d="M77.7,47.7h-5.5c-1.5,0-2.7-1.2-2.7-2.7c0-1.5,1.2-2.7,2.7-2.7h8.2c1.5,0,2.7-1.2,2.7-2.7s-1.2-2.7-2.7-2.7
			h-2.7c0-1.5-1.2-2.7-2.7-2.7c-1.5,0-2.7,1.2-2.7,2.7c-4.5,0-8.2,3.7-8.2,8.2s3.7,8.2,8.2,8.2h5.5c1.5,0,2.7,1.2,2.7,2.7
			c0,1.5-1.2,2.7-2.7,2.7h-8.2c-1.5,0-2.7,1.2-2.7,2.7c0,1.5,1.2,2.7,2.7,2.7h2.7c0,1.5,1.2,2.7,2.7,2.7c1.5,0,2.7-1.2,2.7-2.7
			c4.5,0,8.2-3.7,8.2-8.2S82.2,47.7,77.7,47.7z"/>
	</g>
	<g>
		<g>
			<g>
				<g>
					<circle class="st4" cx="50.5" cy="99.5" r="32.7"/>
					<path class="st1" d="M50.5,135C30.9,135,15,119.1,15,99.5s15.9-35.5,35.5-35.5C70,64.1,85.9,80,85.9,99.5S70,135,50.5,135z
						 M50.5,69.5c-16.5,0-30,13.5-30,30s13.5,30,30,30s30-13.5,30-30S67,69.5,50.5,69.5z"/>
				</g>
			</g>
		</g>
		<g>
			<path class="st5" d="M32.9,123.8L74.8,82c-3-4.1-7-7.4-11.6-9.6l-39.8,39.8C25.5,116.9,28.8,120.9,32.9,123.8z"/>
		</g>
		<g>
			<path class="st5" d="M50.5,129.5c16.6,0,30-13.4,30-30c0-4.1-0.8-8-2.3-11.5l-39.2,39.2C42.5,128.7,46.4,129.5,50.5,129.5z"/>
		</g>
		<g>
			<g>
				<circle class="st5" cx="50.5" cy="99.5" r="21.8"/>
			</g>
			<g>
				<path class="st1" d="M50.5,77.7c12,0,21.8,9.8,21.8,21.8s-9.8,21.8-21.8,21.8s-21.8-9.8-21.8-21.8S38.4,77.7,50.5,77.7 M50.5,75
					c-13.5,0-24.5,11-24.5,24.5s11,24.5,24.5,24.5S75,113.1,75,99.5S64,75,50.5,75L50.5,75z"/>
			</g>
		</g>
		<g>
			<path class="st6" d="M31.4,102.3c0-12,9.8-21.8,21.8-21.8c5.3,0,10.2,1.9,14,5.1c-4-4.8-10-7.8-16.7-7.8
				c-12,0-21.8,9.8-21.8,21.8c0,6.7,3,12.7,7.8,16.7C33.3,112.5,31.4,107.6,31.4,102.3z"/>
		</g>
		<g>
			<path class="st7" d="M56.9,78.7l-27.3,27.3c1.5,5,4.9,9.3,9.2,12l30.1-30.1C66.1,83.5,61.9,80.2,56.9,78.7z"/>
		</g>
		<g>
			<g>
				<path class="st5" d="M55,80.5c4.6,0.4,8.8,2.2,12.2,5c-2.7-3.2-6.3-5.6-10.3-6.8L55,80.5z"/>
			</g>
			<g>
				<path class="st5" d="M36.5,116.3c-2.8-3.4-4.6-7.6-5-12.2l-1.8,1.8C30.9,110,33.3,113.6,36.5,116.3z"/>
			</g>
		</g>
		<g>
			<path class="st7" d="M50.5,121.4c12,0,21.8-9.8,21.8-21.8c0-1.7-0.2-3.4-0.6-5.1l-26.3,26.3C47,121.1,48.7,121.4,50.5,121.4z"/>
		</g>
		<path class="st1" d="M60.3,98.1c0.7-1.2,1.1-2.5,1.1-4c0-4.5-3.7-8.2-8.2-8.2c0-1.5-1.2-2.7-2.7-2.7c-1.5,0-2.7,1.2-2.7,2.7h-5.5
			c-1.5,0-2.7,1.2-2.7,2.7s1.2,2.7,2.7,2.7v16.4c-1.5,0-2.7,1.2-2.7,2.7s1.2,2.7,2.7,2.7h5.5c0,1.5,1.2,2.7,2.7,2.7
			c1.5,0,2.7-1.2,2.7-2.7h2.7c4.5,0,8.2-3.7,8.2-8.2C64.1,102.1,62.6,99.6,60.3,98.1z M53.2,91.4c1.5,0,2.7,1.2,2.7,2.7
			s-1.2,2.7-2.7,2.7h-5.5v-5.5H53.2z M55.9,107.7h-8.2v-5.5h8.2c1.5,0,2.7,1.2,2.7,2.7S57.4,107.7,55.9,107.7z"/>
	</g>
	<g>
		<g>
			<g>
				<g>
					<circle class="st8" cx="99.5" cy="91.4" r="32.7"/>
					<path class="st1" d="M99.5,126.8c-19.6,0-35.5-15.9-35.5-35.5S80,55.9,99.5,55.9c19.6,0,35.5,15.9,35.5,35.5
						S119.1,126.8,99.5,126.8z M99.5,61.4c-16.5,0-30,13.5-30,30s13.5,30,30,30s30-13.5,30-30S116.1,61.4,99.5,61.4z"/>
				</g>
			</g>
		</g>
		<g>
			<path class="st9" d="M82,115.7l41.8-41.8c-3-4.1-7-7.4-11.6-9.6l-39.8,39.8C74.6,108.7,77.9,112.7,82,115.7z"/>
		</g>
		<g>
			<path class="st9" d="M99.5,121.4c16.6,0,30-13.4,30-30c0-4.1-0.8-8-2.3-11.5L88,119.1C91.6,120.5,95.5,121.4,99.5,121.4z"/>
		</g>
		<g>
			<g>
				<circle class="st9" cx="99.5" cy="91.4" r="21.8"/>
			</g>
			<g>
				<g>
					<path class="st1" d="M99.5,69.5c12,0,21.8,9.8,21.8,21.8s-9.8,21.8-21.8,21.8s-21.8-9.8-21.8-21.8S87.5,69.5,99.5,69.5
						 M99.5,66.8C86,66.8,75,77.8,75,91.4s11,24.5,24.5,24.5s24.5-11,24.5-24.5S113.1,66.8,99.5,66.8L99.5,66.8z"/>
				</g>
			</g>
		</g>
		<g>
			<path class="st8" d="M80.5,94.1c0-12,9.8-21.8,21.8-21.8c5.3,0,10.2,1.9,14,5.1c-4-4.8-10-7.8-16.7-7.8c-12,0-21.8,9.8-21.8,21.8
				c0,6.7,3,12.7,7.8,16.7C82.4,104.3,80.5,99.4,80.5,94.1z"/>
		</g>
		<g>
			<path class="st10" d="M105.9,70.5L78.7,97.8c1.5,5,4.9,9.3,9.2,12L118,79.7C115.2,75.4,111,72,105.9,70.5z"/>
		</g>
		<g>
			<g>
				<path class="st11" d="M104.1,72.4c4.6,0.4,8.8,2.2,12.2,5c-2.7-3.2-6.3-5.6-10.3-6.8L104.1,72.4z"/>
			</g>
			<g>
				<path class="st11" d="M85.5,108.1c-2.8-3.4-4.6-7.6-5-12.2l-1.8,1.8C80,101.8,82.4,105.4,85.5,108.1z"/>
			</g>
		</g>
		<g>
			<path class="st10" d="M99.5,113.2c12,0,21.8-9.8,21.8-21.8c0-1.7-0.2-3.4-0.6-5.1l-26.3,26.3C96.1,113,97.8,113.2,99.5,113.2z"/>
		</g>
		<g>
			<polygon class="st1" points="110.5,88.6 99.5,94.1 88.6,88.6 99.5,75 			"/>
		</g>
		<g>
			<polygon class="st1" points="88.6,91.4 99.5,96.8 110.5,91.4 99.5,107.7 			"/>
		</g>
	</g>
</g>
</svg>
