<svg xmlns="http://www.w3.org/2000/svg" xmlns:xlink="http://www.w3.org/1999/xlink" viewBox="0 0 950 950"><defs><style>.a,.b,.c{opacity:0.5;}.a{fill:url(#a);}.b{fill:url(#b);}.c{fill:url(#c);}.d{fill:#c9c2e1;}.e{fill:#b9b2d0;}.f{fill:#ec5e44;}.g{fill:#e03e2f;}.h{fill:#463e52;}.i{fill:#fff;}.j{fill:#342c3e;}.k{fill:#675f76;}.l{fill:#dbd3e9;}.m{fill:#241c2c;}.n{fill:url(#d);}.o{fill:url(#e);}.p{fill:url(#f);}.q{fill:#16111c;}.r{fill:url(#g);}.s{fill:url(#h);}.t{fill:url(#i);}.u{fill:url(#j);}.v{fill:url(#k);}</style><linearGradient id="a" x1="351.81" y1="355.39" x2="80.81" y2="188.39" gradientUnits="userSpaceOnUse"><stop offset="0" stop-color="#dbd3e9" stop-opacity="0"/><stop offset="1" stop-color="#dbd3e9" stop-opacity="0.5"/></linearGradient><linearGradient id="b" x1="682.23" y1="384.95" x2="851.23" y2="215.95" xlink:href="#a"/><linearGradient id="c" x1="482.23" y1="700.79" x2="466.47" y2="918.22" xlink:href="#a"/><linearGradient id="d" x1="870.64" y1="596.39" x2="663.46" y2="743.91" gradientTransform="translate(1260 1260) rotate(180)" xlink:href="#a"/><linearGradient id="e" x1="883.23" y1="998.07" x2="883.23" y2="732.74" gradientTransform="translate(1260 1260) rotate(180)" xlink:href="#a"/><linearGradient id="f" x1="535.17" y1="806.17" x2="762.25" y2="930.48" gradientTransform="translate(1260 1260) rotate(180)" xlink:href="#a"/><linearGradient id="g" x1="505.97" y1="296.16" x2="490.26" y2="504.59" gradientUnits="userSpaceOnUse"><stop offset="0" stop-color="#f58159"/><stop offset="1" stop-color="#e03e2f"/></linearGradient><linearGradient id="h" x1="493.03" y1="430.18" x2="490.94" y2="625" xlink:href="#g"/><linearGradient id="i" x1="595.49" y1="249.77" x2="388.3" y2="397.28" gradientUnits="userSpaceOnUse"><stop offset="0" stop-color="#fff" stop-opacity="0"/><stop offset="0.22" stop-color="#fff" stop-opacity="0.01"/><stop offset="0.39" stop-color="#fff" stop-opacity="0.05"/><stop offset="0.55" stop-color="#fff" stop-opacity="0.12"/><stop offset="0.7" stop-color="#fff" stop-opacity="0.21"/><stop offset="0.84" stop-color="#fff" stop-opacity="0.33"/><stop offset="0.98" stop-color="#fff" stop-opacity="0.48"/><stop offset="1" stop-color="#fff" stop-opacity="0.5"/></linearGradient><linearGradient id="j" x1="608.07" y1="651.44" x2="608.07" y2="386.11" xlink:href="#i"/><linearGradient id="k" x1="260.02" y1="459.54" x2="487.09" y2="583.85" xlink:href="#i"/></defs><title>Notifications</title><path class="a" d="M359.34,116.57V28.62c0-7.31-4.44-10.67-9.93-7.5L233.74,87.91l-12.49-2.85-12.49,17.27L93.09,169.11c-5.48,3.16-9.93,11.66-9.93,19V276l-12,16.56V515.82c0,5.43,3.81,7.63,8.51,4.91L362.81,357.28c4.7-2.71,8.51-9.31,8.51-14.74V119.3Z"/><path class="b" d="M866.77,503.25l-190-109.68c-6.65-3.84-12-14.14-12-23V96.65c0-8.87,5.39-12.94,12-9.1l190,109.68c6.65,3.84,12,14.14,12,23V494.15C878.81,503,873.42,507.09,866.77,503.25Z"/><path class="c" d="M383.93,644.63L231.61,732.57c-7.3,4.22-7.3,11.05,0,15.27L541.76,926.91c7.3,4.22,19.15,4.22,26.45,0L720.53,839c7.3-4.22,7.3-11.06,0-15.27L410.39,644.63C403.08,640.42,391.24,640.42,383.93,644.63Z"/><polygon class="d" points="94.29 305.92 244.36 98.39 394.42 132.64 244.36 355.03 94.29 305.92"/><polygon class="e" points="100.19 298.06 100.19 311.15 117.35 313.46 272.4 313.46 379.86 154.22 376.77 128.61 244.36 98.39 100.19 298.06"/><path class="f" d="M382.45,317.86L106.27,477.31V201.41c0-7.31,4.44-15.8,9.93-19l256.32-148c5.48-3.16,9.93.19,9.93,7.5v275.9Z"/><polygon class="g" points="244.36 334.08 106.27 304.44 106.27 477.31 382.44 317.86 382.44 144.99 244.36 334.08"/><path class="h" d="M385.91,370.62L102.8,534.07c-4.7,2.71-8.51.51-8.51-4.91V305.92l156.06,36.22,144.06-209.5V355.88C394.42,361.31,390.61,367.9,385.91,370.62Z"/><path class="i" d="M177.73,199.21c-1.41-2-4.92,0-6.32,3.65l-27,69.68c-1.41,3.62.35,6.12,3.16,4.5l54.07-31.22c2.81-1.62,4.57-6.15,3.16-8.15Zm161.4-85.53L221.54,181.58a12.61,12.61,0,0,0-5.7,9.88c0,3.64,2.55,5.11,5.7,3.29l117.59-67.89a12.61,12.61,0,0,0,5.7-9.88C344.84,113.34,342.28,111.87,339.13,113.69ZM319.69,150l-98.15,56.67a12.61,12.61,0,0,0-5.7,9.88c0,3.64,2.55,5.11,5.7,3.29l98.15-56.67a12.61,12.61,0,0,0,5.7-9.88C325.4,149.67,322.84,148.2,319.69,150Z"/><path class="h" d="M835.48,521.32l-190-109.68c-6.65-3.84-12-14.14-12-23V114.71c0-8.87,5.39-12.94,12-9.1l190,109.68c6.65,3.84,12,14.14,12,23V512.22C847.52,521.08,842.13,525.16,835.48,521.32Z"/><path class="h" d="M843.67,210.57l-190-109.68c-3-1.75-5.79-1.85-7.91-.61-1.28.75-6,3.43-7.94,4.58,2.08-1.09,4.75-.92,7.66.76l190,109.68a23.51,23.51,0,0,1,8.27,9.17l8.19-4.73A23.51,23.51,0,0,0,843.67,210.57ZM637.32,105.18c0.17-.11.34-0.23,0.51-0.33l-0.46.28Z"/><polygon class="g" points="855.71 434.92 847.52 439.65 847.52 496.17 855.71 491.44 855.71 434.92"/><path class="j" d="M835.48,521.32l-190-109.68c-6.65-3.84-12-14.14-12-23V114.71c0-8.87,5.39-12.94,12-9.1l190,109.68c6.65,3.84,12,14.14,12,23V512.22C847.52,521.08,842.13,525.16,835.48,521.32Z"/><polygon class="f" points="847.52 496.17 633.46 372.59 633.46 316.06 847.52 439.65 847.52 496.17"/><path class="d" d="M741.79,232.83l-42.68-24.64c-3.5-2-6.33-.94-6.33,2.42h0c0,3.36,2.84,7.71,6.33,9.73L741.79,245c3.5,2,6.33.94,6.33-2.42h0C748.13,239.21,745.29,234.85,741.79,232.83Z"/><path class="d" d="M787.33,278.64L698,227.09c-2.91-1.68-5.26-.32-5.26,3h0a11.63,11.63,0,0,0,5.26,9.12l89.29,51.55c2.91,1.68,5.26.32,5.26-3h0A11.63,11.63,0,0,0,787.33,278.64Z"/><path class="d" d="M654.06,212a6.53,6.53,0,0,1,6.24-2.32,17.08,17.08,0,0,1-3.39-9.46c0-5.07,3.56-7.13,8-4.59a17.59,17.59,0,0,1,8,13.78c0,3.11-1.34,5.07-3.39,5.55a30.7,30.7,0,0,1,6.24,9.53c3.12-1.55,5.08-5.18,5.08-10.49,0-10.14-7.12-22.47-15.9-27.54s-15.9-1-15.9,9.18C649,201,650.94,206.87,654.06,212Z"/><path class="d" d="M733.5,177.85L698,157.37c-2.91-1.68-5.26-.32-5.26,3h0a11.63,11.63,0,0,0,5.26,9.12L733.5,190c2.91,1.68,5.26.32,5.26-3h0A11.63,11.63,0,0,0,733.5,177.85Z"/><path class="d" d="M787.33,228.45L698,176.9c-2.91-1.68-5.26-.32-5.26,3h0A11.63,11.63,0,0,0,698,189l89.29,51.55c2.91,1.68,5.26.32,5.26-3h0A11.63,11.63,0,0,0,787.33,228.45Z"/><path class="d" d="M654.06,161.82a6.53,6.53,0,0,1,6.24-2.32,17.08,17.08,0,0,1-3.39-9.46c0-5.07,3.56-7.13,8-4.59a17.59,17.59,0,0,1,8,13.78c0,3.11-1.34,5.07-3.39,5.55a30.7,30.7,0,0,1,6.24,9.53c3.12-1.55,5.08-5.18,5.08-10.49,0-10.14-7.12-22.47-15.9-27.54s-15.9-1-15.9,9.18C649,150.77,650.94,156.67,654.06,161.82Z"/><path class="d" d="M726.25,273L697.1,256.21c-2.39-1.38-4.33.22-4.33,3.58h0c0,3.36,1.94,7.2,4.33,8.57l29.15,16.83c2.39,1.38,4.33-.22,4.33-3.58h0C730.57,278.26,728.64,274.42,726.25,273Z"/><path class="d" d="M773.87,320.06L698,276.27c-2.91-1.68-5.26-.32-5.26,3h0a11.63,11.63,0,0,0,5.26,9.12l75.83,43.78c2.91,1.68,5.26.32,5.26-3h0A11.63,11.63,0,0,0,773.87,320.06Z"/><path class="d" d="M654.06,261.2a6.53,6.53,0,0,1,6.24-2.32,17.08,17.08,0,0,1-3.39-9.46c0-5.07,3.56-7.13,8-4.59a17.59,17.59,0,0,1,8,13.78c0,3.11-1.34,5.07-3.39,5.55a30.7,30.7,0,0,1,6.24,9.53c3.12-1.55,5.08-5.18,5.08-10.49,0-10.14-7.12-22.47-15.9-27.54s-15.9-1-15.9,9.18C649,250.15,650.94,256,654.06,261.2Z"/><path class="d" d="M741.66,331.12l-42.57-24.58c-3.49-2-6.32-.93-6.32,2.43h0c0,3.36,2.83,7.71,6.32,9.72l42.57,24.58c3.49,2,6.32.93,6.32-2.43h0C748,337.49,745.15,333.13,741.66,331.12Z"/><path class="d" d="M802,385.45L698,325.46c-2.91-1.68-5.26-.32-5.26,3h0a11.63,11.63,0,0,0,5.26,9.12l103.92,60c2.91,1.68,5.26.32,5.26-3h0A11.63,11.63,0,0,0,802,385.45Z"/><path class="d" d="M654.06,310.39a6.53,6.53,0,0,1,6.24-2.32,17.08,17.08,0,0,1-3.39-9.46c0-5.07,3.56-7.13,8-4.59a17.59,17.59,0,0,1,8,13.78c0,3.11-1.34,5.07-3.39,5.55a30.7,30.7,0,0,1,6.24,9.53c3.12-1.55,5.08-5.18,5.08-10.49,0-10.14-7.12-22.47-15.9-27.54s-15.9-1-15.9,9.18C649,299.33,650.94,305.23,654.06,310.39Z"/><path class="i" d="M733.5,386.43L698,366c-2.91-1.68-5.26-.32-5.26,3h0a11.63,11.63,0,0,0,5.26,9.12l35.47,20.48c2.91,1.68,5.26.32,5.26-3h0A11.63,11.63,0,0,0,733.5,386.43Z"/><path class="i" d="M802,445.48L698,385.48c-2.91-1.68-5.26-.32-5.26,3h0a11.63,11.63,0,0,0,5.26,9.12l103.92,60c2.91,1.68,5.26.32,5.26-3h0A11.63,11.63,0,0,0,802,445.48Z"/><path class="i" d="M666.55,347.35l14.78,38.1c0.77,2-.19,3.35-1.73,2.46L650,370.84c-1.54-.89-2.5-3.36-1.73-4.46l14.78-21C663.86,344.26,665.78,345.37,666.55,347.35Z"/><path class="k" d="M835.37,514.09L645.89,404.69c-4.06-2.34-7.35-8.63-7.35-14h0c0-5.41,3.29-7.9,7.35-5.55L835.37,494.5c4.06,2.34,7.35,8.63,7.35,14h0C842.72,513.94,839.43,516.43,835.37,514.09Z"/><path class="l" d="M652.6,398.77c0,3.24-2.28,4.55-5.08,2.93a11.23,11.23,0,0,1-5.08-8.8c0-3.24,2.28-4.55,5.08-2.93A11.23,11.23,0,0,1,652.6,398.77Z"/><path class="d" d="M664.82,405.83c0,3.24-2.28,4.55-5.08,2.93a11.23,11.23,0,0,1-5.08-8.8c0-3.24,2.28-4.55,5.08-2.93A11.23,11.23,0,0,1,664.82,405.83Z"/><path class="e" d="M677,412.88c0,3.24-2.28,4.55-5.08,2.93a11.23,11.23,0,0,1-5.08-8.8c0-3.24,2.28-4.55,5.08-2.93A11.23,11.23,0,0,1,677,412.88Z"/><path class="m" d="M851.93,219.74l-8.19,4.73a29.91,29.91,0,0,1,3.77,13.83V512.22c0,4.93-1.67,8.37-4.29,9.8,3-1.46,9.81-5.8,10.63-7a13.66,13.66,0,0,0,1.86-7.48V233.57A29.91,29.91,0,0,0,851.93,219.74Zm-9.68,302.7a6.6,6.6,0,0,0,.61-0.26,5.93,5.93,0,0,1-.62.26h0Z"/><polygon class="n" points="492.42 456.69 723.72 590.23 492.42 723.76 261.13 590.22 492.42 456.69"/><polygon class="o" points="261.13 323.15 492.42 189.61 492.42 456.69 261.13 590.23 261.13 323.15"/><polygon class="p" points="492.42 189.61 723.72 323.15 723.72 590.23 492.42 456.69 492.42 189.61"/><path class="m" d="M726,785.82h0c0,2.76-1.83,5.53-5.48,7.64L568.21,881.4c-7.3,4.22-19.15,4.22-26.45,0L231.61,702.34c-3.65-2.11-5.48-4.87-5.48-7.64v27.56c0,2.76,1.83,5.53,5.48,7.64L541.76,909c7.3,4.22,19.15,4.22,26.45,0L720.53,821c3.65-2.11,5.48-4.87,5.48-7.64S726,788.59,726,785.82Zm-2.14-5a9,9,0,0,1,1.29,1.82A9,9,0,0,0,723.87,780.8Z"/><path class="h" d="M383.93,599.13L231.61,687.07c-7.3,4.22-7.3,11.05,0,15.27L541.76,881.4c7.3,4.22,19.15,4.22,26.45,0l152.32-87.94c7.3-4.22,7.3-11.06,0-15.27L410.39,599.13C403.08,594.91,391.24,594.91,383.93,599.13Z"/><polygon class="q" points="693.59 762.64 514.82 865.85 258.55 717.89 437.32 614.68 693.59 762.64"/><path class="q" d="M640.82,820.74l-25.36,14.64a6.2,6.2,0,0,1-5.56.23l-2.54-1.47c-1.42-.82-1.24-2.26.4-3.21l25.36-14.64a6.2,6.2,0,0,1,5.56-.23l2.54,1.47C642.64,818.35,642.46,819.79,640.82,820.74Z"/><path class="q" d="M344.38,649.59L319,664.23a6.2,6.2,0,0,1-5.56.23L310.93,663c-1.42-.82-1.24-2.26.4-3.21l25.36-14.64a6.2,6.2,0,0,1,5.56-.23l2.54,1.47C346.2,647.2,346,648.65,344.38,649.59Z"/><path class="f" d="M386.69,791.87s3.86-39.12,89.39-51.61,89.39-51.61,89.39-51.61l-128.14-74L258.55,717.89Z"/><path class="g" d="M565.46,688.66s-3.86,39.12-89.39,51.61-89.39,51.61-89.39,51.61l128.14,74L693.59,762.64Z"/><path class="i" d="M403.89,744.21l-34,19.64c-3.07,1.77-3.07,4.65,0,6.42l34,19.64a12.29,12.29,0,0,0,11.12,0l34-19.64c3.07-1.77,3.07-4.65,0-6.42l-34-19.64A12.29,12.29,0,0,0,403.89,744.21Zm111.3-64.26L420,734.9c-3.07,1.77-3.07,4.65,0,6.42L454,761a12.29,12.29,0,0,0,11.12,0l95.18-55c3.07-1.77,3.07-4.65,0-6.42l-34-19.64A12.29,12.29,0,0,0,515.19,679.95Z"/><path class="g" d="M434.55,739l8.18,4.72,76.52-44.18-8.18-4.72Zm23,13.27,56.1-32.39-8.18-4.72-56.1,32.39Z"/><path class="g" d="M394.9,756.66l41.32,6.39c2.1,0.32,2.8,1.84,1.27,2.73l-30.25,17.47c-1.54.89-4.16,0.48-4.72-.73l-11.07-23.86C390.87,757.44,392.8,756.33,394.9,756.66Z"/><path class="j" d="M556.25,884.53a27.62,27.62,0,0,1-14.49-3.13L231.61,702.34c-3.65-2.11-5.48-4.87-5.48-7.64v27.56c0,2.76,1.83,5.53,5.48,7.64L541.76,909a27.62,27.62,0,0,0,14.49,3.13V884.53Z"/><path class="r" d="M533.66,502.29c-16.24-25-26.71-31.81-41.92-28.67,11.46,17-9.7,29.17-14.64,10.64-7.27-27.29-29.94-41.13-47.92-42.84,42,52-18.81,67.7-48.33,46.9-22.73-16-19.69-41.67-13.32-57.21C396,361.52,474.61,348.21,481,291c34.56,18.6,31.39,75.42,47.53,92.3,18.89,19.76,44.38,3.53,27.27-15.35,28,12.08,57.67,42.82,67.16,84.14C636.44,510.67,553.83,533.36,533.66,502.29Z"/><path class="s" d="M623.06,452.41c13.06,58.34-69.27,80.88-89.4,49.88-16.24-25-26.71-31.81-41.92-28.67,11.46,17-9.7,29.17-14.64,10.64-7.27-27.29-29.94-41.13-47.92-42.84,42,52-18.81,67.7-48.33,46.9-21.94-15.46-19.86-39.9-14-55.56-6,15.19-9.58,33-9.58,54.52a135.11,135.11,0,0,0,270.23,0A138,138,0,0,0,623.06,452.41Z"/><polygon class="t" points="492.42 456.69 261.13 323.15 492.42 189.61 723.72 323.15 492.42 456.69"/><polygon class="u" points="723.72 590.22 492.42 723.76 492.42 456.69 723.72 323.15 723.72 590.22"/><polygon class="v" points="492.42 723.76 261.13 590.22 261.13 323.15 492.42 456.69 492.42 723.76"/><path class="j" d="M102.19,307.75l-7.9-1.83V529.16c0,5.19,3.49,7.42,7.9,5.23V307.75Z"/></svg>
